#N canvas -8 -8 1920 997 12;
#X obj 29 24 tgl 15 0 empty empty empty 17 7 0 10 -262144 -1 -1 1 1
;
#X msg 29 46 \; pd dsp \$1;
#X obj 367 30 tgl 15 0 empty empty empty 17 7 0 10 -262144 -1 -1 0
1;
#X floatatom 318 204 5 0 0 0 - - -;
#X obj 438 133 + 1;
#X floatatom 436 99 5 0 5000 0 - - -;
#X obj 454 59 hsl 128 15 80 300 0 0 empty empty Speed -2 -8 0 10 -262130
-1 -1 0 1;
#X obj 519 441 hsl 50 15 0 10 0 0 empty empty Volume -2 -8 0 10 -204800
-1 -1 0 1;
#X floatatom 496 481 5 0 0 0 - - -;
#X obj 428 477 osc~;
#X floatatom 428 402 5 0 0 0 - - -;
#X obj 368 98 metro;
#X obj 368 133 float;
#X msg 292 307 100;
#X msg 332 308 200;
#X msg 374 310 300;
#X msg 416 311 400;
#X msg 459 311 500;
#X msg 503 312 600;
#X msg 545 311 700;
#X msg 586 311 800;
#X msg 632 313 900;
#X msg 678 313 1000;
#N canvas 0 50 450 300 (subpatch) 0;
#X array wave 2051 float 0;
#X coords 0 1 2050 -1 200 100 1 0 0;
#X restore 671 621 graph;
#X obj 551 675 metro 100;
#X obj 552 645 tgl 15 0 empty empty empty 17 7 0 10 -262144 -1 -1 0
1;
#X obj 551 707 tabwrite~ wave;
#X obj 318 241 select 0 1 2 3 4 5 6 7 8 9 10 11 12 13 14 15 16 17;
#X obj 312 540 bng 15 250 50 0 empty empty empty 17 7 0 10 -262144
-1 -1;
#X obj 350 540 bng 15 250 50 0 empty empty empty 17 7 0 10 -262144
-1 -1;
#X msg 310 572 0;
#X obj 368 170 mod 18;
#X obj 352 693 dac~;
#X obj 270 618 *~;
#X obj 434 534 *~ 0.7;
#X floatatom 266 481 5 0 0 0 - - -;
#X obj 265 509 phasor~;
#X msg 347 574 0.5;
#X obj 267 448 * 1.2;
#X connect 0 0 1 0;
#X connect 2 0 11 0;
#X connect 3 0 27 0;
#X connect 4 0 12 1;
#X connect 5 0 11 1;
#X connect 6 0 5 0;
#X connect 7 0 8 0;
#X connect 8 0 34 1;
#X connect 9 0 34 0;
#X connect 10 0 9 0;
#X connect 10 0 38 0;
#X connect 11 0 12 0;
#X connect 12 0 4 0;
#X connect 12 0 31 0;
#X connect 13 0 10 0;
#X connect 14 0 10 0;
#X connect 15 0 10 0;
#X connect 16 0 10 0;
#X connect 17 0 10 0;
#X connect 18 0 10 0;
#X connect 19 0 10 0;
#X connect 20 0 10 0;
#X connect 21 0 10 0;
#X connect 22 0 10 0;
#X connect 24 0 26 0;
#X connect 25 0 24 0;
#X connect 27 0 13 0;
#X connect 27 1 14 0;
#X connect 27 2 15 0;
#X connect 27 3 16 0;
#X connect 27 4 17 0;
#X connect 27 5 18 0;
#X connect 27 6 19 0;
#X connect 27 7 20 0;
#X connect 27 8 21 0;
#X connect 27 9 22 0;
#X connect 27 10 21 0;
#X connect 27 11 20 0;
#X connect 27 12 19 0;
#X connect 27 13 18 0;
#X connect 27 14 17 0;
#X connect 27 15 16 0;
#X connect 27 16 15 0;
#X connect 27 17 14 0;
#X connect 28 0 30 0;
#X connect 29 0 37 0;
#X connect 30 0 33 1;
#X connect 31 0 3 0;
#X connect 33 0 32 0;
#X connect 33 0 32 1;
#X connect 33 0 26 0;
#X connect 34 0 32 0;
#X connect 34 0 32 1;
#X connect 34 0 26 0;
#X connect 35 0 36 0;
#X connect 36 0 33 0;
#X connect 37 0 33 1;
#X connect 38 0 35 0;
